# xmcd
#
# Track frame offsets: 
#        150
#        18351
#        34378
#        50263
#        66874
#        77286
#        96881
#        113021
#        127704
#        139980
#        158722
#
# Disc length: 2344 seconds
#
# Revision: 0
# Processed by: cddbd v1.5.2PL0 Copyright (c) Steve Scherf et al.
# Submitted via: ExactAudioCopy v1.0b2
#
DISCID=8209260b
DTITLE=Susan Herndon - 1000 Pies
DYEAR=2007
DGENRE=Country
TTITLE0=At The End Of The Day
TTITLE1=On My Way
TTITLE2=Susan Herndont - Seven Sisters
TTITLE3=Here In The Heartland (The Big Dipper Song)
TTITLE4=World Class Wallflower
TTITLE5=La Fille Du Nord (Girl Of The North Country)
TTITLE6=Oklahoma Waters
TTITLE7=King's River
TTITLE8=Once Bitten Twice Shy
TTITLE9=There Is No End For My Love For You
TTITLE10=Highway 33 (Home)
EXTD=
EXTT0=
EXTT1=
EXTT2=
EXTT3=
EXTT4=
EXTT5=
EXTT6=
EXTT7=
EXTT8=
EXTT9=
EXTT10=
PLAYORDER=
